<svg width="18" height="18" viewBox="0 0 18 18" fill="none" xmlns="http://www.w3.org/2000/svg">
<path d="M13.5872 17.9999C12.9765 18.0088 12.3481 17.8465 11.7344 17.6341C10.988 17.3744 10.2445 17.1089 9.51874 16.8021C8.54808 16.392 7.67183 15.8285 6.83983 15.1882C5.46793 14.135 4.24944 12.9253 3.15192 11.5918C2.35533 10.627 1.6502 9.59735 1.18404 8.42607C0.773947 7.4023 0.343198 6.38148 0.107171 5.29871C-0.155409 4.09792 0.0924193 2.97679 0.679536 1.92057C0.862457 1.59014 1.07488 1.2774 1.30796 0.976466C1.59414 0.610625 1.96588 0.377548 2.40843 0.256585C2.80673 0.147422 3.20797 0.0618624 3.61807 0.00875633C3.96621 -0.0354987 4.20814 0.0825147 4.3763 0.383449C4.67429 0.92041 4.97817 1.45147 5.27321 1.99138C5.59184 2.5726 5.91933 3.14791 6.29402 3.69668C6.66871 4.24839 6.62741 4.52867 6.15241 5.00368C5.86622 5.28986 5.55644 5.54359 5.24075 5.79732C4.93687 6.03924 4.63888 6.28707 4.39106 6.59096C4.21699 6.80338 4.21109 7.01875 4.30845 7.26363C4.43236 7.57637 4.62413 7.85075 4.78935 8.13988C5.35287 9.12234 6.00194 10.0458 6.78968 10.866C7.4476 11.5505 8.17338 12.1494 8.96997 12.6627C9.52169 13.0197 10.0793 13.3679 10.6694 13.6629C11.0087 13.834 11.286 13.7573 11.5486 13.5036C11.9026 13.1584 12.2006 12.769 12.5104 12.3884C12.7198 12.1317 12.9411 11.8898 13.1949 11.6803C13.5105 11.4177 13.7554 11.3912 14.1154 11.5947C14.5461 11.8396 14.9415 12.1435 15.3781 12.3795C16.0036 12.7159 16.6261 13.064 17.2486 13.4092C17.4197 13.5036 17.5879 13.6069 17.7472 13.719C17.9449 13.8576 18.0187 14.0406 18.0009 14.2766C17.9655 14.7486 17.8505 15.2059 17.7295 15.6603C17.5672 16.2799 17.1247 16.6575 16.632 16.9909C15.9977 17.4187 15.3161 17.755 14.5579 17.9084C14.2511 17.9704 13.9442 18.0058 13.5872 17.9999Z" fill="white"/>
</svg>
