<svg width="24" height="20" viewBox="0 0 24 20" fill="none" xmlns="http://www.w3.org/2000/svg">
<path d="M0 17.7345C2.69931 18.0049 5.0987 17.3226 7.25631 15.6562C4.99464 15.4676 3.47666 14.3042 2.64728 12.1253C3.40015 12.2668 4.11324 12.2479 4.82632 12.0467C3.69702 11.7637 2.74828 11.1789 2.01989 10.2451C1.29457 9.31442 0.939556 8.24855 0.942617 7.03176C1.41392 7.29272 1.89135 7.47194 2.39021 7.57255C2.62892 7.61972 2.8707 7.65116 3.15226 7.65745C2.08722 6.87769 1.38944 5.87156 1.10482 4.58559C0.82632 3.30592 1.01301 2.09227 1.63428 0.944648C1.70773 0.95408 1.72609 1.01696 1.75976 1.05469C3.56848 3.24303 5.80566 4.76796 8.48049 5.6043C9.51186 5.92815 10.5708 6.11052 11.648 6.18912C11.7858 6.19855 11.8041 6.16711 11.7766 6.02877C11.2165 3.23046 13.114 0.457302 15.8653 0.0579926C17.5057 -0.17782 18.9288 0.306382 20.1163 1.49488C20.202 1.58291 20.2785 1.57663 20.3764 1.55462C21.3833 1.33138 22.3351 0.95408 23.2318 0.429004C23.2594 0.413284 23.2869 0.400707 23.342 0.369265C22.9533 1.55776 22.2494 2.45699 21.2548 3.12984C22.1974 3.02609 23.0941 2.76512 24 2.36581C23.8256 2.64564 23.6572 2.86888 23.4858 3.09211C22.9503 3.77125 22.3443 4.37494 21.6588 4.89372C21.5792 4.95346 21.5516 5.0132 21.5547 5.11381C21.6343 8.85537 20.4927 12.1725 18.1729 15.04C16.15 17.5396 13.5578 19.0802 10.4606 19.709C8.94568 20.0172 7.41546 20.0832 5.87911 19.8945C3.80413 19.643 1.87911 18.9419 0.104055 17.8068C0.0795715 17.7942 0.055088 17.7754 0 17.7345Z" fill="#A2ABBD"/>
</svg>
