<svg width="30" height="17" viewBox="0 0 30 17" fill="none" xmlns="http://www.w3.org/2000/svg">
<path d="M3.01812 0.733855C3.72821 0.733855 4.4383 0.724072 5.14838 0.738747C5.47384 0.743639 5.77464 0.861045 6.01627 1.08607C6.09517 1.15945 6.14448 1.24751 6.20365 1.34045C6.31707 1.52635 6.38117 1.73181 6.47487 1.92259C6.56363 2.10848 6.62773 2.30416 6.71156 2.49495C6.76581 2.62214 6.82991 2.73954 6.88908 2.86184C6.94333 2.97435 6.99757 3.08687 7.04688 3.19938C7.0814 3.27765 7.11099 3.36082 7.15537 3.43419C7.25892 3.6152 7.33782 3.80598 7.43151 3.99187C7.60903 4.32941 7.80135 4.66207 7.9838 4.99961C8.0627 5.14147 8.15639 5.27845 8.24515 5.42031C8.36843 5.62577 8.49171 5.82634 8.61992 6.0318C8.70375 6.16878 8.79744 6.30086 8.88127 6.43294C9.06373 6.72156 9.2659 6.99551 9.47301 7.26457C9.62095 7.45535 9.77875 7.63146 9.93654 7.81246C10.0993 7.99346 10.2916 8.13533 10.4987 8.25762C10.7058 8.37992 10.9376 8.43373 11.1743 8.30165C11.2581 8.25273 11.3321 8.18914 11.3814 8.11087C11.4455 8.01792 11.4948 7.91519 11.5441 7.81246C11.6329 7.63146 11.6427 7.43578 11.7068 7.24989C11.7216 7.20097 11.7266 7.14227 11.7315 7.08846C11.8646 6.31553 11.8548 5.53283 11.8498 4.75012C11.8449 4.30985 11.8301 3.87447 11.8153 3.43419C11.8104 3.32657 11.7709 3.21895 11.766 3.11133C11.7512 2.86673 11.7068 2.63192 11.6378 2.39711C11.554 2.10848 11.4159 1.84432 11.1841 1.64375C11.0707 1.54591 10.9425 1.47254 10.8094 1.39916C10.6713 1.32578 10.5184 1.29643 10.3803 1.23283C10.3212 1.20348 10.2571 1.20348 10.193 1.20348C10.0006 1.1888 9.97106 1.13988 10.0401 0.968667C10.1042 0.817018 10.2275 0.71918 10.3458 0.621341C10.4839 0.503935 10.6368 0.401205 10.8094 0.347394C10.9967 0.293583 11.1693 0.195744 11.3715 0.181069C11.4504 0.176177 11.5244 0.151717 11.6033 0.132149C11.7808 0.0783384 11.9682 0.0832303 12.1506 0.0685546C12.841 -0.00482421 13.5363 6.77082e-05 14.2267 6.77082e-05C14.4929 6.77082e-05 14.7543 6.7708e-05 15.0206 0.0196354C15.3756 0.0489869 15.7356 0.0587707 16.0857 0.137041C16.2188 0.166393 16.3569 0.185961 16.4901 0.215312C16.638 0.249556 16.781 0.308259 16.9191 0.371853C17.136 0.4648 17.2692 0.645801 17.3727 0.836586C17.4467 0.973559 17.496 1.1301 17.5157 1.29153C17.5749 1.7367 17.5749 2.18186 17.5552 2.62703C17.5305 3.14068 17.5157 3.65922 17.5108 4.17287C17.5059 4.69631 17.5009 5.21974 17.4812 5.74318C17.4714 5.9731 17.4664 6.20302 17.4664 6.43294C17.4615 6.74602 17.4911 7.0591 17.5453 7.3673C17.57 7.51405 17.6094 7.6657 17.6933 7.79778C17.7081 7.82224 17.713 7.8516 17.7228 7.87606C17.8313 8.07173 17.9595 8.25273 18.1913 8.32122C18.354 8.37014 18.502 8.32122 18.645 8.24784C18.7387 8.19892 18.8225 8.13533 18.9063 8.06684C19.1332 7.88095 19.3353 7.6657 19.5326 7.44557C19.7496 7.20097 19.932 6.93192 20.1342 6.67754C20.2279 6.56013 20.3018 6.42316 20.3857 6.29597C20.5977 5.98288 20.8098 5.67469 21.0021 5.35183C21.15 5.09745 21.3127 4.85285 21.4508 4.59358C21.5938 4.32941 21.7417 4.06525 21.8749 3.7962C21.9242 3.68857 21.9735 3.58095 22.013 3.47333C22.0376 3.39995 22.0869 3.33636 22.1214 3.26787C22.2201 3.08198 22.2891 2.88141 22.3877 2.69551C22.4469 2.583 22.4814 2.45581 22.5406 2.3384C22.6047 2.20632 22.6491 2.06446 22.7132 1.92748C22.7674 1.81008 22.8167 1.69267 22.8611 1.57037C22.9499 1.31599 23.0584 1.07629 23.2655 0.895289C23.2753 0.885505 23.2852 0.865937 23.3 0.865937C23.4282 0.826802 23.5466 0.748531 23.6896 0.748531C23.9115 0.748531 24.1334 0.743639 24.3503 0.743639C25.7311 0.743639 27.1118 0.743639 28.4925 0.743639C28.6256 0.743639 28.7588 0.724072 28.8919 0.743639C28.9758 0.753423 29.0645 0.758315 29.1484 0.777883C29.242 0.802342 29.3308 0.812126 29.4245 0.831694C29.5922 0.865937 29.745 0.9491 29.8584 1.07629C29.9275 1.14967 29.9817 1.24751 29.9866 1.36002C29.9916 1.53613 29.9916 1.70735 29.9275 1.87856C29.8782 2.00575 29.8535 2.13784 29.8042 2.26992C29.7204 2.47538 29.6168 2.67105 29.5231 2.87652C29.4689 2.99881 29.4048 3.11622 29.3456 3.23363C29.3259 3.28254 29.2864 3.31679 29.2568 3.36082C29.1484 3.54671 29.0349 3.72771 28.9264 3.9136C28.8969 3.96252 28.8574 4.00655 28.8229 4.05547C28.675 4.2756 28.532 4.50063 28.3742 4.71588C28.2509 4.8822 28.1375 5.05831 28.0142 5.22464C27.7035 5.64045 27.383 6.05626 27.0674 6.47207C26.8061 6.81451 26.5496 7.16184 26.2833 7.49938C26.0664 7.77332 25.8691 8.06195 25.662 8.3359C25.5141 8.53157 25.376 8.73703 25.2626 8.95717C25.1344 9.20177 25.0555 9.46593 25.0801 9.74477C25.09 9.87196 25.1097 9.99915 25.1985 10.1068C25.2478 10.1655 25.2527 10.2437 25.2971 10.3073C25.4549 10.5422 25.6571 10.7427 25.8543 10.9433C26.1009 11.1928 26.3524 11.4374 26.6187 11.6624C26.8307 11.8385 27.0082 12.0489 27.2203 12.225C27.3435 12.3228 27.4471 12.4549 27.5605 12.5674C27.7232 12.7337 27.886 12.8952 28.0487 13.0615C28.1177 13.1349 28.1868 13.2082 28.2509 13.2914C28.3446 13.4088 28.4679 13.4969 28.5615 13.6143C28.8673 13.9812 29.1779 14.3481 29.4442 14.7443C29.5971 14.9693 29.745 15.209 29.8584 15.4536C29.962 15.6689 30.036 15.9037 29.9817 16.1581C29.9571 16.2706 29.9127 16.3733 29.8387 16.4663C29.7105 16.6277 29.5478 16.7402 29.3456 16.8087C29.2026 16.8527 29.0596 16.8919 28.9166 16.9457C28.7785 16.9946 28.6306 16.9946 28.4826 16.9946C27.4372 16.9995 26.3918 16.9946 25.3464 16.9946C25.016 16.9946 24.6856 16.9946 24.3553 16.9995C24.1038 17.0044 23.8572 16.975 23.6255 16.8919C23.2852 16.7647 22.9548 16.613 22.654 16.4027C22.1708 16.0602 21.7713 15.6395 21.3768 15.2041C21.219 15.028 21.0514 14.8519 20.8985 14.6709C20.7358 14.4753 20.5632 14.2894 20.3857 14.1035C20.0898 13.7904 19.7939 13.4773 19.4241 13.2376C19.2564 13.13 19.074 13.0615 18.8767 13.0224C18.8176 13.0126 18.7584 13.0224 18.6992 13.037C18.4921 13.0811 18.3343 13.1985 18.1864 13.3403C18.0631 13.4577 17.9793 13.5996 17.9053 13.7513C17.8412 13.8784 17.8116 14.0154 17.7376 14.1377C17.7179 14.1671 17.7179 14.2062 17.7081 14.2404C17.6933 14.2943 17.6933 14.3481 17.6686 14.4019C17.6045 14.5584 17.6045 14.7198 17.5749 14.8813C17.5108 15.2335 17.5009 15.5857 17.496 15.9428C17.4911 16.1776 17.427 16.3978 17.2889 16.5886C17.2149 16.6913 17.1262 16.7745 16.998 16.8136C16.9092 16.8429 16.8204 16.8821 16.7366 16.9261C16.6281 16.9848 16.5098 16.9995 16.3914 16.9946C16.1991 16.9848 16.0068 16.9946 15.8145 16.9946C15.4299 16.9995 15.0403 16.9995 14.6557 16.9946C14.4486 16.9946 14.2464 16.9946 14.0393 16.975C13.7483 16.9457 13.4525 16.9114 13.1665 16.838C13.1418 16.8332 13.1122 16.8234 13.0876 16.8185C12.841 16.7989 12.6092 16.7255 12.3725 16.6717C12.3282 16.6619 12.2887 16.6522 12.2493 16.6326C12.1852 16.6032 12.1161 16.5837 12.0471 16.5739C11.983 16.5641 11.9238 16.5445 11.8646 16.5201C11.7216 16.4663 11.5786 16.4125 11.4307 16.3733C11.3074 16.3391 11.194 16.2804 11.0806 16.2315C10.7255 16.0798 10.3705 15.9282 10.0352 15.7374C9.76395 15.5857 9.48781 15.4439 9.24125 15.2531C9.2018 15.2237 9.16235 15.2041 9.1229 15.1797C8.81224 14.984 8.52623 14.759 8.24515 14.5291C7.97887 14.3138 7.72738 14.0839 7.48082 13.8442C7.29344 13.6632 7.11099 13.4675 6.93347 13.2767C6.66225 12.9783 6.40583 12.6652 6.14941 12.3571C5.86833 12.0146 5.60698 11.6575 5.35056 11.3004C5.16318 11.0411 4.97579 10.777 4.79334 10.5128C4.74403 10.4394 4.69472 10.3611 4.64541 10.2878C4.52706 10.1019 4.39392 9.93066 4.2805 9.73988C4.18681 9.58333 4.08818 9.42679 3.98956 9.27025C3.80711 9.0012 3.65917 8.71257 3.48165 8.43863C3.33372 8.2136 3.21537 7.969 3.07236 7.73908C2.90964 7.47981 2.77156 7.20097 2.62363 6.93192C2.4609 6.6384 2.29817 6.34488 2.14037 6.04648C2.08613 5.93886 2.02203 5.83613 1.97765 5.72361C1.9382 5.62088 1.87409 5.53283 1.82478 5.43499C1.77054 5.33226 1.71136 5.22953 1.65712 5.1268C1.61274 5.03385 1.5585 4.9409 1.51905 4.84307C1.46481 4.71588 1.40563 4.58869 1.33166 4.46639C1.22811 4.29517 1.15907 4.10928 1.06538 3.93317C0.971689 3.76195 0.907584 3.57606 0.813892 3.40484C0.759649 3.29722 0.715269 3.18471 0.661026 3.07708C0.601852 2.96457 0.547609 2.84716 0.498298 2.72487C0.458848 2.62214 0.399674 2.52919 0.355294 2.43135C0.281326 2.25035 0.182703 2.07913 0.113667 1.89813C0.0643552 1.68289 -0.00468102 1.50189 0.000250143 1.30621C0.00518131 1.13988 0.0840799 1.02248 0.217221 0.92464C0.404605 0.787666 0.626508 0.753423 0.838548 0.743639C1.27742 0.724072 1.71629 0.733855 2.15024 0.733855C2.44118 0.733855 2.73211 0.733855 3.01812 0.733855Z" fill="#A2ABBD"/>
</svg>
