<svg width="12" height="24" viewBox="0 0 12 24" fill="none" xmlns="http://www.w3.org/2000/svg">
<g clip-path="url(#clip0)">
<path d="M3.0486 18.3845C3.0486 16.5688 3.0486 14.7532 3.0517 12.9375C3.0517 12.8044 3.02689 12.759 2.87491 12.759C1.96925 12.765 1.06669 12.759 0.161031 12.765C0.0338663 12.765 -0.00335261 12.7317 -0.000251037 12.6077C0.00595212 11.3428 0.00595212 10.0748 -0.000251037 8.80992C-0.000251037 8.68585 0.0400695 8.66164 0.157929 8.66164C1.06359 8.66467 1.96615 8.66164 2.87181 8.66769C3.01138 8.66769 3.0548 8.63743 3.0548 8.49521C3.0486 7.39673 3.0455 6.29523 3.0517 5.19676C3.0579 4.30103 3.244 3.44465 3.68442 2.65181C4.40709 1.35059 5.55467 0.600113 6.9938 0.230929C7.86845 0.00699746 8.7617 -0.0111591 9.65496 0.00699747C10.3838 0.022128 11.1096 0.0705455 11.8354 0.140146C11.9501 0.15225 11.978 0.188563 11.9749 0.297503C11.9408 1.48676 11.9098 2.67602 11.8819 3.86527C11.8788 3.98329 11.8261 3.98934 11.7299 3.98934C10.877 3.98329 10.024 3.98329 9.17111 3.98027C8.91058 3.98027 8.65625 4.00145 8.40502 4.07105C7.94599 4.19512 7.67305 4.4826 7.5676 4.93349C7.50867 5.18163 7.49626 5.43279 7.49626 5.68396C7.49626 6.6281 7.49936 7.56922 7.49316 8.51336C7.49316 8.64046 7.52728 8.67072 7.65754 8.67072C9.05325 8.66769 10.449 8.67072 11.8447 8.66467C11.978 8.66467 12.006 8.70401 11.9966 8.82808C11.9532 9.59671 11.916 10.3684 11.8788 11.14C11.854 11.6333 11.8292 12.1265 11.8106 12.6198C11.8075 12.7378 11.7671 12.7711 11.6462 12.7681C10.3218 12.765 9.00052 12.7681 7.67615 12.762C7.52417 12.762 7.49006 12.8044 7.49006 12.9466C7.49316 16.5688 7.49316 20.1881 7.49626 23.8103C7.49626 23.9555 7.47145 24.004 7.30706 24.004C5.94237 23.9949 4.57768 23.9979 3.21298 24.0009C3.07651 24.0009 3.03929 23.9677 3.0424 23.8345C3.0486 22.0158 3.0486 20.2002 3.0486 18.3845Z" fill="#A2ABBD"/>
</g>
<defs>
<clipPath id="clip0">
<rect width="12" height="24" fill="white"/>
</clipPath>
</defs>
</svg>
