<svg width="20" height="20" viewBox="0 0 20 20" fill="none" xmlns="http://www.w3.org/2000/svg">
<g clip-path="url(#clip0)">
<path d="M20 5.57692C20 5.38462 20 5.19231 20 5C19.9038 4.32692 19.7115 3.65385 19.3269 3.07692C18.9423 2.40385 18.4615 1.82692 17.8846 1.34615C17.3077 0.865385 16.6346 0.480769 15.8654 0.288462C15.5769 0.192308 15.1923 0.0961538 14.8077 0.0961538C14.7115 0.0961538 14.6154 0.0961538 14.5192 0.0961538H14.4231H14.3269C14.2308 0.0961538 14.2308 0.0961538 14.1346 0.0961538C11.4423 0 8.55769 0 5.76923 0H5.67308H5.57692H5.48077C5.38462 0 5.28846 0 5.19231 0C4.71154 0.0961538 4.23077 0.192308 3.84615 0.288462C3.36538 0.480769 2.98077 0.673077 2.5 0.961538C2.11538 1.25 1.73077 1.63462 1.44231 2.01923C1.05769 2.40385 0.865385 2.69231 0.673077 3.17308C0.480769 3.46154 0.288462 3.84615 0.192308 4.23077C0.0961538 4.51923 0.0961538 4.80769 0 5.19231C0 5.28846 0 5.38462 0 5.48077V5.57692C0 5.57692 0 5.57692 0 5.67308V5.76923C0 8.65385 0 11.4423 0 14.3269V14.4231V14.5192C0 14.6154 0 14.8077 0 14.9038C0.0961538 15.4808 0.288462 16.1538 0.576923 16.6346C0.961538 17.3077 1.44231 17.9808 2.01923 18.4615C2.40385 18.75 2.78846 19.0385 3.26923 19.2308C3.65385 19.4231 4.13462 19.6154 4.51923 19.7115C4.90385 19.8077 5.28846 19.8077 5.67308 19.8077C8.55769 19.8077 11.4423 19.8077 14.2308 19.8077C14.3269 19.8077 14.4231 19.8077 14.4231 19.8077C14.7115 19.8077 15.0962 19.7115 15.3846 19.7115C15.9615 19.6154 16.5385 19.3269 17.0192 19.0385C17.5962 18.75 18.0769 18.2692 18.4615 17.7885C18.75 17.4038 19.0385 17.0192 19.2308 16.6346C19.4231 16.3462 19.5192 16.0577 19.6154 15.7692C19.8077 15.2885 19.9038 14.8077 19.9038 14.2308C20 11.4423 20 8.55769 20 5.57692ZM18.4615 10C18.4615 11.3462 18.4615 12.7885 18.4615 14.1346C18.4615 14.8077 18.2692 15.5769 17.9808 16.1538C17.5 17.0192 16.9231 17.5962 16.0577 17.9808C15.4808 18.2692 14.9038 18.3654 14.2308 18.3654C11.4423 18.3654 8.65385 18.3654 5.86538 18.3654C4.80769 18.3654 3.94231 17.9808 3.17308 17.4038C2.40385 16.7308 1.92308 15.8654 1.73077 14.9038C1.73077 14.6154 1.63462 14.4231 1.63462 14.1346C1.63462 11.3462 1.63462 8.55769 1.63462 5.76923C1.63462 4.13462 2.40385 2.88462 3.84615 2.01923C4.51923 1.63462 5.19231 1.53846 5.86538 1.53846C8.65385 1.53846 11.4423 1.53846 14.3269 1.53846C15.6731 1.53846 16.7308 2.11538 17.5962 3.07692C18.0769 3.65385 18.3654 4.32692 18.4615 5.09615C18.4615 5.28846 18.5577 5.57692 18.5577 5.76923C18.4615 7.21154 18.4615 8.65385 18.4615 10Z" fill="#A2ABBD"/>
<path d="M15.7692 3.0769C15.0961 3.0769 14.6154 3.55767 14.6154 4.23075C14.6154 4.90383 15.0961 5.3846 15.7692 5.3846C16.4423 5.3846 16.923 4.90383 16.923 4.23075C16.923 3.55767 16.4423 3.0769 15.7692 3.0769Z" fill="#A2ABBD"/>
<path d="M10 4.61548C7.01923 4.61548 4.61539 7.01932 4.61539 10.0001C4.61539 12.9809 7.01923 15.3847 10 15.3847C12.9808 15.3847 15.3846 12.9809 15.3846 10.0001C15.3846 7.01932 12.9808 4.61548 10 4.61548ZM10 13.8462C7.88462 13.8462 6.15385 12.1155 6.15385 10.0001C6.15385 7.88471 7.88462 6.15394 10 6.15394C12.1154 6.15394 13.8462 7.88471 13.8462 10.0001C13.8462 12.1155 12.1154 13.8462 10 13.8462Z" fill="#A2ABBD"/>
</g>
<defs>
<clipPath id="clip0">
<rect width="20" height="20" fill="white"/>
</clipPath>
</defs>
</svg>
